<svg viewBox="0 0 1024 1024" version="1.1" xmlns="http://www.w3.org/2000/svg" width="512"
    height="512">
    <path
        d="M839.099 59.526h-654.199c-69.243 0-125.375 53.746-125.375 120.044v664.86c0 66.299 56.132 120.044 125.375 120.044h654.199c69.243 0 125.375-53.746 125.375-120.044v-664.86c0-66.299-56.132-120.044-125.375-120.044zM840.094 388.754l-331.814 331.814c-11.779 11.78-27.219 17.67-42.66 17.67s-30.879-5.89-42.66-17.67l-239.057-239.057c-23.558-23.558-23.558-61.758 0-85.319s61.758-23.558 85.319 0l196.397 196.397 289.155-289.155c23.558-23.558 61.758-23.558 85.319 0s23.558 61.758 0 85.319z"
        fill="#ffffff"></path>
</svg>