<svg xmlns="http://www.w3.org/2000/svg" viewBox="0 0 1024 1024" version="1.1">
    <path d="M85.333333 213.333333m85.333334 0l682.666666 0q85.333333 0 85.333334 85.333334l0 426.666666q0 85.333333-85.333334 85.333334l-682.666666 0q-85.333333 0-85.333334-85.333334l0-426.666666q0-85.333333 85.333334-85.333334Z" fill="#ffffff90" />
    <path d="M256 384a42.666667 42.666667 0 1 0 42.666667 42.666667 42.666667 42.666667 0 0 0-42.666667-42.666667zM256 554.666667a42.666667 42.666667 0 1 0 42.666667 42.666666 42.666667 42.666667 0 0 0-42.666667-42.666666zM384 384a42.666667 42.666667 0 1 0 42.666667 42.666667 42.666667 42.666667 0 0 0-42.666667-42.666667zM512 384a42.666667 42.666667 0 1 0 42.666667 42.666667 42.666667 42.666667 0 0 0-42.666667-42.666667zM768 554.666667a42.666667 42.666667 0 1 0 42.666667 42.666666 42.666667 42.666667 0 0 0-42.666667-42.666666z" fill="#41cf7d90" />
    <path d="M768 384h-128a42.666667 42.666667 0 0 0 0 85.333333h128a42.666667 42.666667 0 0 0 0-85.333333z" fill="#41CF7D" />
    <path d="M640 448a21.333333 21.333333 0 0 1 0-42.666667h128a21.333333 21.333333 0 0 1 0 42.666667z" fill="#41CF7D" />
    <path d="M384 618.666667a21.333333 21.333333 0 0 1 0-42.666667h256a21.333333 21.333333 0 0 1 0 42.666667z" />
    <path d="M640 554.666667H384a42.666667 42.666667 0 0 0 0 85.333333h256a42.666667 42.666667 0 0 0 0-85.333333z" fill="#41cf7d" />
</svg>